<svg width="11" height="8" viewBox="0 0 11 8" fill="none" xmlns="http://www.w3.org/2000/svg">
<path d="M10.7126 0H0.224727C0.0824141 0 0 0.111102 0 0.246449V7.74735C0 7.88253 0.0824141 8 0.224727 8H10.7126C10.8551 8 11 7.88253 11 7.74718V0.246449C11 0.111102 10.8551 0 10.7126 0ZM10.4844 7.5102H0.515625V7.02041H10.4844V7.5102ZM10.4844 6.53061H0.515625V6.04082H10.4844V6.53061ZM10.4844 5.55102H0.515625V0.489796H10.4844V5.55102Z" fill="white"/>
<path d="M1.17159 0.891076C1.07525 0.799566 0.903379 0.799566 0.807215 0.891076C0.759005 0.936872 0.731505 0.999647 0.731505 1.06414C0.731505 1.12871 0.759005 1.19148 0.807215 1.2372C0.85534 1.28291 0.921512 1.30903 0.989317 1.30903C1.05729 1.30903 1.12347 1.28291 1.17159 1.2372C1.2198 1.1914 1.24713 1.12871 1.24713 1.06414C1.24713 0.999647 1.2198 0.93679 1.17159 0.891076Z" fill="white"/>
<path d="M10.041 0.891076C9.94462 0.799566 9.77274 0.799566 9.67658 0.891076C9.62837 0.936872 9.60087 0.999647 9.60087 1.06414C9.60087 1.12871 9.62837 1.19148 9.67658 1.2372C9.72479 1.28291 9.79087 1.30903 9.85868 1.30903C9.92665 1.30903 9.99283 1.28291 10.041 1.2372C10.0892 1.1914 10.1165 1.12871 10.1165 1.06414C10.1165 0.999647 10.0892 0.93679 10.041 0.891076Z" fill="white"/>
<path d="M1.17159 4.81125C1.07525 4.71982 0.903379 4.71982 0.807215 4.81125C0.759005 4.85704 0.731505 4.91982 0.731505 4.98439C0.731505 5.0488 0.759005 5.11182 0.807215 5.15737C0.855426 5.20317 0.921512 5.22929 0.989317 5.22929C1.05729 5.22929 1.12347 5.20317 1.17159 5.15737C1.2198 5.11174 1.24713 5.0488 1.24713 4.98439C1.24713 4.91982 1.2198 4.85696 1.17159 4.81125Z" fill="white"/>
<path d="M10.041 4.89288C9.94462 4.80145 9.77274 4.80145 9.67658 4.89288C9.62837 4.93867 9.60087 5.00145 9.60087 5.06602C9.60087 5.13043 9.62837 5.19345 9.67658 5.239C9.72479 5.2848 9.79087 5.31092 9.85868 5.31092C9.92665 5.31092 9.99283 5.2848 10.041 5.239C10.0892 5.19337 10.1165 5.13043 10.1165 5.06602C10.1165 5.00145 10.0892 4.93859 10.041 4.89288Z" fill="white"/>
<path d="M9.87072 1.66248C9.4761 1.66248 9.14902 1.35595 9.14902 0.981007C9.14902 0.935864 9.1045 0.897905 9.05707 0.897905H1.79097C1.74344 0.897905 1.70503 0.935864 1.70503 0.981007C1.70503 1.35595 1.40493 1.66166 1.01031 1.66166C0.962786 1.66166 0.945341 1.69888 0.945341 1.74411V4.22101C0.945341 4.26607 0.962786 4.30264 1.01031 4.30264C1.40493 4.30264 1.71551 4.60623 1.71551 4.98109C1.71551 5.02623 1.74344 5.06125 1.79097 5.06125H9.05707C9.10459 5.06125 9.143 5.02615 9.143 4.98109C9.143 4.60623 9.47618 4.30199 9.87081 4.30199C9.91825 4.3019 9.96878 4.26607 9.96878 4.22101V1.74411C9.96878 1.69888 9.91825 1.66248 9.87072 1.66248ZM2.46583 3.50362C2.14022 3.50362 1.87622 3.25276 1.87622 2.94346C1.87622 2.63415 2.14022 2.38337 2.46583 2.38337C2.79145 2.38337 3.05545 2.63415 3.05545 2.94346C3.05545 3.25276 2.79145 3.50362 2.46583 3.50362ZM6.58147 3.82117C6.41947 3.6499 6.10159 3.57415 5.84378 3.5397V3.25872C6.01565 3.11676 6.09205 2.82133 6.09205 2.52672C6.09205 2.01578 5.81834 1.88044 5.47433 1.88044C5.13033 1.88044 4.842 2.01578 4.842 2.52672C4.842 2.82125 4.98449 3.11676 5.07043 3.25872V3.5397C4.81261 3.57513 4.49877 3.65431 4.34133 3.8366C4.20272 3.57962 4.12743 3.27235 4.12743 2.94166C4.12743 2.0415 4.72822 1.31186 5.46591 1.31186C6.20343 1.31186 6.79768 2.0415 6.79768 2.94166C6.7976 3.2659 6.71527 3.56729 6.58147 3.82117ZM8.49572 3.50362C8.17011 3.50362 7.90611 3.25276 7.90611 2.94346C7.90611 2.63415 8.17011 2.38337 8.49572 2.38337C8.82134 2.38337 9.08534 2.63415 9.08534 2.94346C9.08534 3.25276 8.82134 3.50362 8.49572 3.50362Z" fill="white"/>
</svg>
